<svg width="256" height="256" viewBox="0 0 256 256" fill="none" xmlns="http://www.w3.org/2000/svg">
<rect x="3" y="3" width="250" height="250" fill="white"/>
<rect x="3" y="3" width="250" height="250" stroke="#0E489F" stroke-width="6"/>
<path d="M27.429 51.358C25.7244 51.358 24.1989 51.0384 22.8523 50.3991C21.5057 49.7514 20.4361 48.8651 19.6435 47.7401C18.8594 46.6151 18.4418 45.3281 18.3906 43.8793H22.9929C23.0781 44.9531 23.5426 45.831 24.3864 46.5128C25.2301 47.1861 26.2443 47.5227 27.429 47.5227C28.358 47.5227 29.1847 47.3097 29.9091 46.8835C30.6335 46.4574 31.2045 45.8651 31.6222 45.1065C32.0398 44.348 32.2443 43.483 32.2358 42.5114C32.2443 41.5227 32.0355 40.6449 31.6094 39.8778C31.1832 39.1108 30.5994 38.5099 29.858 38.0753C29.1165 37.6321 28.2642 37.4105 27.3011 37.4105C26.517 37.402 25.7457 37.5469 24.9872 37.8452C24.2287 38.1435 23.6278 38.5355 23.1847 39.0213L18.902 38.3182L20.2699 24.8182H35.4574V28.7812H24.1946L23.4403 35.723H23.5938C24.0795 35.152 24.7656 34.679 25.652 34.304C26.5384 33.9205 27.5099 33.7287 28.5668 33.7287C30.152 33.7287 31.5668 34.1037 32.8111 34.8537C34.0554 35.5952 35.0355 36.6179 35.7514 37.9219C36.4673 39.2259 36.8253 40.7173 36.8253 42.3963C36.8253 44.1264 36.4247 45.669 35.6236 47.0241C34.831 48.3707 33.7273 49.4318 32.3125 50.2074C30.9062 50.9744 29.2784 51.358 27.429 51.358ZM40.6349 46.142V42.3707L51.7443 24.8182H54.8892V30.1875H52.9716L45.4929 42.0384V42.2429H61V46.142H40.6349ZM53.125 51V44.9915L53.1761 43.304V24.8182H57.6506V51H53.125Z" fill="#282828"/>
<path d="M128 132.592C134.733 132.592 140.191 127.113 140.191 120.356C140.191 113.599 134.731 108.12 128 108.12C121.269 108.12 115.81 113.599 115.81 120.356C115.81 127.113 121.266 132.592 128 132.592Z" fill="#0E489F"/>
<path d="M128 147.885C161.663 147.885 188.952 135.56 188.952 120.356C188.952 105.152 161.663 92.8265 128 92.8265C94.3371 92.8265 67.0468 105.152 67.0468 120.356C67.0468 135.56 94.3371 147.885 128 147.885Z" stroke="#0E489F" stroke-width="5.333"/>
<path d="M104.246 134.121C121.078 163.381 145.357 180.938 158.475 173.336C171.595 165.734 168.585 135.85 151.753 106.591C134.922 77.3298 110.642 59.7729 97.5246 67.3756C84.4046 74.9771 87.4149 104.86 104.246 134.121Z" stroke="#0E489F" stroke-width="5.333"/>
<path d="M104.246 106.591C87.4149 135.852 84.4057 165.734 97.5234 173.336C110.643 180.938 134.922 163.38 151.753 134.121C168.585 104.859 171.595 74.9783 158.477 67.3756C145.357 59.7729 121.078 77.3309 104.246 106.591Z" stroke="#0E489F" stroke-width="5.333"/>
<path d="M89.8244 186.97L93.9309 193.91H94.09L98.2164 186.97H103.079L96.8642 197.151L103.218 207.333H98.2662L94.09 200.383H93.9309L89.7548 207.333H84.823L91.1966 197.151L84.9423 186.97H89.8244ZM111.891 207.632C110.32 207.632 108.968 207.313 107.834 206.677C106.707 206.034 105.839 205.126 105.229 203.953C104.619 202.773 104.314 201.377 104.314 199.767C104.314 198.196 104.619 196.817 105.229 195.63C105.839 194.444 106.697 193.519 107.804 192.856C108.918 192.193 110.224 191.862 111.722 191.862C112.729 191.862 113.667 192.024 114.536 192.349C115.411 192.667 116.173 193.148 116.823 193.791C117.479 194.434 117.989 195.242 118.354 196.217C118.718 197.185 118.901 198.318 118.901 199.617V200.781H106.004V198.156H114.914C114.914 197.546 114.781 197.006 114.516 196.535C114.251 196.064 113.883 195.696 113.412 195.431C112.948 195.16 112.408 195.024 111.791 195.024C111.148 195.024 110.578 195.173 110.081 195.471C109.591 195.763 109.206 196.157 108.928 196.654C108.649 197.145 108.507 197.692 108.5 198.295V200.791C108.5 201.546 108.639 202.199 108.918 202.75C109.203 203.3 109.604 203.724 110.121 204.022C110.638 204.321 111.251 204.47 111.96 204.47C112.431 204.47 112.862 204.403 113.253 204.271C113.644 204.138 113.979 203.939 114.257 203.674C114.536 203.409 114.748 203.084 114.894 202.7L118.811 202.958C118.612 203.9 118.205 204.722 117.588 205.424C116.978 206.12 116.19 206.664 115.222 207.055C114.261 207.439 113.15 207.632 111.891 207.632ZM125.901 198.504V207.333H121.665V192.061H125.702V194.755H125.881C126.219 193.867 126.786 193.164 127.581 192.647C128.377 192.124 129.341 191.862 130.475 191.862C131.535 191.862 132.46 192.094 133.249 192.558C134.038 193.022 134.651 193.685 135.088 194.546C135.526 195.401 135.744 196.422 135.744 197.609V207.333H131.509V198.365C131.515 197.43 131.277 196.701 130.793 196.177C130.309 195.647 129.643 195.382 128.794 195.382C128.224 195.382 127.72 195.504 127.283 195.75C126.852 195.995 126.514 196.353 126.269 196.823C126.03 197.287 125.907 197.848 125.901 198.504ZM145.983 207.632C144.439 207.632 143.103 207.303 141.976 206.647C140.856 205.984 139.991 205.063 139.381 203.883C138.771 202.696 138.466 201.321 138.466 199.757C138.466 198.179 138.771 196.8 139.381 195.62C139.991 194.434 140.856 193.512 141.976 192.856C143.103 192.193 144.439 191.862 145.983 191.862C147.528 191.862 148.86 192.193 149.981 192.856C151.108 193.512 151.976 194.434 152.586 195.62C153.196 196.8 153.501 198.179 153.501 199.757C153.501 201.321 153.196 202.696 152.586 203.883C151.976 205.063 151.108 205.984 149.981 206.647C148.86 207.303 147.528 207.632 145.983 207.632ZM146.003 204.35C146.706 204.35 147.293 204.151 147.763 203.754C148.234 203.349 148.589 202.799 148.827 202.103C149.073 201.407 149.195 200.615 149.195 199.727C149.195 198.839 149.073 198.046 148.827 197.35C148.589 196.654 148.234 196.104 147.763 195.7C147.293 195.295 146.706 195.093 146.003 195.093C145.294 195.093 144.698 195.295 144.214 195.7C143.736 196.104 143.375 196.654 143.13 197.35C142.891 198.046 142.772 198.839 142.772 199.727C142.772 200.615 142.891 201.407 143.13 202.103C143.375 202.799 143.736 203.349 144.214 203.754C144.698 204.151 145.294 204.35 146.003 204.35ZM160.491 198.504V207.333H156.255V192.061H160.292V194.755H160.471C160.809 193.867 161.376 193.164 162.171 192.647C162.966 192.124 163.931 191.862 165.064 191.862C166.125 191.862 167.05 192.094 167.839 192.558C168.627 193.022 169.241 193.685 169.678 194.546C170.116 195.401 170.334 196.422 170.334 197.609V207.333H166.099V198.365C166.105 197.43 165.867 196.701 165.383 196.177C164.899 195.647 164.233 195.382 163.384 195.382C162.814 195.382 162.31 195.504 161.873 195.75C161.442 195.995 161.104 196.353 160.858 196.823C160.62 197.287 160.497 197.848 160.491 198.504Z" fill="#282828"/>
<path d="M83.4176 220.455V235H81.2159V222.656H81.1307L77.6506 224.929V222.827L81.2798 220.455H83.4176ZM92.4162 235.199C91.4408 235.199 90.5696 235.031 89.8026 234.695C89.0402 234.358 88.4366 233.892 87.9915 233.295C87.5511 232.694 87.3144 231.998 87.2812 231.207H89.5114C89.5398 231.638 89.6842 232.012 89.9446 232.33C90.2098 232.642 90.5554 232.884 90.9815 233.054C91.4077 233.224 91.8812 233.31 92.402 233.31C92.9749 233.31 93.4815 233.21 93.9219 233.011C94.367 232.812 94.715 232.536 94.9659 232.18C95.2169 231.821 95.3423 231.406 95.3423 230.938C95.3423 230.45 95.2169 230.021 94.9659 229.652C94.7197 229.278 94.3575 228.984 93.8793 228.771C93.4058 228.558 92.8329 228.452 92.1605 228.452H90.9318V226.662H92.1605C92.7003 226.662 93.1738 226.565 93.581 226.371C93.9929 226.177 94.3149 225.907 94.5469 225.561C94.7789 225.211 94.8949 224.801 94.8949 224.332C94.8949 223.883 94.7931 223.492 94.5895 223.161C94.3906 222.824 94.1065 222.562 93.7372 222.372C93.3726 222.183 92.9418 222.088 92.4446 222.088C91.9711 222.088 91.5284 222.176 91.1165 222.351C90.7093 222.521 90.3778 222.768 90.1222 223.089C89.8665 223.407 89.7292 223.788 89.7102 224.233H87.5866C87.6103 223.447 87.8423 222.756 88.2827 222.159C88.7277 221.562 89.3149 221.096 90.044 220.76C90.7732 220.424 91.5829 220.256 92.473 220.256C93.4058 220.256 94.2107 220.438 94.8878 220.803C95.5696 221.162 96.0952 221.643 96.4645 222.244C96.8385 222.846 97.0232 223.504 97.0185 224.219C97.0232 225.033 96.7959 225.724 96.3366 226.293C95.8821 226.861 95.276 227.242 94.5185 227.436V227.55C95.4844 227.696 96.2325 228.08 96.7628 228.7C97.2978 229.321 97.563 230.09 97.5582 231.009C97.563 231.809 97.3404 232.526 96.8906 233.161C96.4455 233.795 95.8371 234.295 95.0653 234.659C94.2936 235.019 93.4105 235.199 92.4162 235.199ZM105.761 220.455V235H103.56V222.656H103.474L99.9943 224.929V222.827L103.624 220.455H105.761ZM110.284 235.135C109.895 235.135 109.562 234.998 109.282 234.723C109.003 234.444 108.863 234.107 108.863 233.714C108.863 233.326 109.003 232.995 109.282 232.72C109.562 232.441 109.895 232.301 110.284 232.301C110.672 232.301 111.006 232.441 111.285 232.72C111.565 232.995 111.704 233.326 111.704 233.714C111.704 233.975 111.638 234.214 111.505 234.432C111.377 234.645 111.207 234.815 110.994 234.943C110.781 235.071 110.544 235.135 110.284 235.135ZM114.52 235V233.409L119.442 228.31C119.968 227.756 120.401 227.27 120.742 226.854C121.087 226.432 121.346 226.032 121.516 225.653C121.686 225.275 121.772 224.872 121.772 224.446C121.772 223.963 121.658 223.546 121.431 223.196C121.203 222.841 120.893 222.569 120.5 222.379C120.107 222.185 119.665 222.088 119.172 222.088C118.651 222.088 118.197 222.195 117.809 222.408C117.42 222.621 117.122 222.921 116.914 223.31C116.705 223.698 116.601 224.152 116.601 224.673H114.506C114.506 223.788 114.71 223.014 115.117 222.351C115.524 221.688 116.083 221.174 116.793 220.81C117.503 220.44 118.31 220.256 119.215 220.256C120.129 220.256 120.934 220.438 121.63 220.803C122.33 221.162 122.877 221.655 123.27 222.28C123.663 222.9 123.86 223.601 123.86 224.382C123.86 224.922 123.758 225.45 123.554 225.966C123.355 226.482 123.007 227.057 122.51 227.692C122.013 228.321 121.322 229.086 120.436 229.986L117.546 233.011V233.118H124.094V235H114.52ZM131.623 220.256C132.271 220.26 132.91 220.379 133.54 220.611C134.17 220.843 134.738 221.222 135.245 221.747C135.756 222.273 136.163 222.983 136.466 223.878C136.774 224.768 136.93 225.876 136.935 227.202C136.935 228.475 136.807 229.609 136.551 230.604C136.296 231.593 135.929 232.429 135.451 233.111C134.977 233.793 134.402 234.311 133.725 234.666C133.048 235.021 132.285 235.199 131.438 235.199C130.571 235.199 129.802 235.028 129.13 234.688C128.457 234.347 127.91 233.875 127.489 233.274C127.068 232.668 126.805 231.972 126.701 231.186H128.867C129.009 231.811 129.298 232.318 129.733 232.706C130.174 233.089 130.742 233.281 131.438 233.281C132.503 233.281 133.334 232.817 133.931 231.889C134.527 230.956 134.828 229.654 134.833 227.983H134.719C134.473 228.39 134.165 228.741 133.796 229.034C133.431 229.328 133.022 229.555 132.567 229.716C132.113 229.877 131.627 229.957 131.111 229.957C130.273 229.957 129.511 229.751 128.824 229.339C128.138 228.928 127.591 228.362 127.184 227.642C126.776 226.922 126.573 226.101 126.573 225.178C126.573 224.259 126.781 223.426 127.198 222.678C127.619 221.929 128.206 221.338 128.959 220.902C129.717 220.462 130.605 220.246 131.623 220.256ZM131.63 222.102C131.076 222.102 130.576 222.24 130.131 222.514C129.691 222.784 129.343 223.151 129.087 223.615C128.831 224.074 128.703 224.586 128.703 225.149C128.703 225.713 128.827 226.224 129.073 226.683C129.324 227.138 129.665 227.5 130.096 227.77C130.531 228.035 131.028 228.168 131.587 228.168C132.004 228.168 132.392 228.087 132.752 227.926C133.112 227.765 133.426 227.543 133.696 227.259C133.966 226.97 134.177 226.643 134.328 226.278C134.48 225.914 134.556 225.53 134.556 225.128C134.556 224.593 134.428 224.096 134.172 223.636C133.921 223.177 133.576 222.808 133.135 222.528C132.695 222.244 132.193 222.102 131.63 222.102ZM144.565 235.199C143.589 235.199 142.718 235.031 141.951 234.695C141.189 234.358 140.585 233.892 140.14 233.295C139.7 232.694 139.463 231.998 139.43 231.207H141.66C141.688 231.638 141.833 232.012 142.093 232.33C142.358 232.642 142.704 232.884 143.13 233.054C143.556 233.224 144.03 233.31 144.55 233.31C145.123 233.31 145.63 233.21 146.07 233.011C146.515 232.812 146.863 232.536 147.114 232.18C147.365 231.821 147.491 231.406 147.491 230.938C147.491 230.45 147.365 230.021 147.114 229.652C146.868 229.278 146.506 228.984 146.028 228.771C145.554 228.558 144.981 228.452 144.309 228.452H143.08V226.662H144.309C144.849 226.662 145.322 226.565 145.729 226.371C146.141 226.177 146.463 225.907 146.695 225.561C146.927 225.211 147.043 224.801 147.043 224.332C147.043 223.883 146.942 223.492 146.738 223.161C146.539 222.824 146.255 222.562 145.886 222.372C145.521 222.183 145.09 222.088 144.593 222.088C144.12 222.088 143.677 222.176 143.265 222.351C142.858 222.521 142.526 222.768 142.271 223.089C142.015 223.407 141.878 223.788 141.859 224.233H139.735C139.759 223.447 139.991 222.756 140.431 222.159C140.876 221.562 141.463 221.096 142.192 220.76C142.922 220.424 143.731 220.256 144.621 220.256C145.554 220.256 146.359 220.438 147.036 220.803C147.718 221.162 148.244 221.643 148.613 222.244C148.987 222.846 149.172 223.504 149.167 224.219C149.172 225.033 148.944 225.724 148.485 226.293C148.031 226.861 147.424 227.242 146.667 227.436V227.55C147.633 227.696 148.381 228.08 148.911 228.7C149.446 229.321 149.711 230.09 149.707 231.009C149.711 231.809 149.489 232.526 149.039 233.161C148.594 233.795 147.986 234.295 147.214 234.659C146.442 235.019 145.559 235.199 144.565 235.199ZM153.038 227.727C153.038 225.947 153.272 224.309 153.741 222.812C154.21 221.316 154.894 219.936 155.793 218.672H157.739C157.389 219.141 157.062 219.716 156.759 220.398C156.456 221.08 156.191 221.828 155.964 222.642C155.737 223.452 155.559 224.292 155.431 225.163C155.303 226.03 155.239 226.884 155.239 227.727C155.239 228.854 155.351 229.995 155.573 231.151C155.796 232.306 156.096 233.378 156.475 234.368C156.854 235.357 157.275 236.165 157.739 236.79H155.793C154.894 235.526 154.21 234.145 153.741 232.649C153.272 231.153 153.038 229.512 153.038 227.727ZM165.028 235.199C164.379 235.189 163.74 235.071 163.11 234.844C162.485 234.616 161.917 234.238 161.406 233.707C160.895 233.177 160.485 232.464 160.177 231.57C159.874 230.675 159.723 229.557 159.723 228.217C159.723 226.948 159.848 225.821 160.099 224.837C160.355 223.852 160.722 223.021 161.2 222.344C161.678 221.662 162.256 221.143 162.933 220.788C163.61 220.433 164.37 220.256 165.213 220.256C166.079 220.256 166.849 220.426 167.521 220.767C168.193 221.108 168.738 221.579 169.154 222.18C169.576 222.782 169.843 223.466 169.957 224.233H167.791C167.644 223.627 167.353 223.132 166.917 222.749C166.482 222.365 165.913 222.173 165.213 222.173C164.147 222.173 163.316 222.637 162.72 223.565C162.128 224.493 161.83 225.784 161.825 227.436H161.931C162.182 227.024 162.49 226.674 162.855 226.385C163.224 226.091 163.636 225.866 164.091 225.71C164.55 225.549 165.033 225.469 165.539 225.469C166.382 225.469 167.145 225.675 167.826 226.087C168.513 226.494 169.06 227.057 169.467 227.777C169.874 228.497 170.078 229.321 170.078 230.249C170.078 231.177 169.867 232.017 169.446 232.77C169.029 233.523 168.442 234.119 167.684 234.56C166.927 234.995 166.041 235.208 165.028 235.199ZM165.021 233.352C165.58 233.352 166.079 233.215 166.52 232.94C166.96 232.666 167.308 232.296 167.564 231.832C167.819 231.368 167.947 230.85 167.947 230.277C167.947 229.718 167.822 229.209 167.571 228.75C167.324 228.291 166.984 227.926 166.548 227.656C166.117 227.386 165.625 227.251 165.071 227.251C164.649 227.251 164.259 227.332 163.899 227.493C163.544 227.654 163.231 227.876 162.961 228.161C162.691 228.445 162.478 228.771 162.322 229.141C162.171 229.505 162.095 229.891 162.095 230.298C162.095 230.843 162.22 231.347 162.471 231.811C162.727 232.275 163.075 232.649 163.515 232.933C163.96 233.213 164.462 233.352 165.021 233.352ZM176.777 227.727C176.777 229.512 176.543 231.153 176.074 232.649C175.605 234.145 174.921 235.526 174.021 236.79H172.075C172.426 236.321 172.752 235.746 173.055 235.064C173.358 234.382 173.624 233.636 173.851 232.827C174.078 232.012 174.256 231.17 174.384 230.298C174.511 229.427 174.575 228.57 174.575 227.727C174.575 226.605 174.464 225.466 174.241 224.311C174.019 223.156 173.718 222.083 173.339 221.094C172.961 220.104 172.539 219.297 172.075 218.672H174.021C174.921 219.936 175.605 221.316 176.074 222.812C176.543 224.309 176.777 225.947 176.777 227.727Z" fill="#282828"/>
</svg>
