<svg width="256" height="256" viewBox="0 0 256 256" fill="none" xmlns="http://www.w3.org/2000/svg">
<g clip-path="url(#clip0_7_2)">
<path d="M231 0H25C11.1929 0 0 11.1929 0 25V231C0 244.807 11.1929 256 25 256H231C244.807 256 256 244.807 256 231V25C256 11.1929 244.807 0 231 0Z" fill="#3178C6"/>
<path d="M231 0H25C11.1929 0 0 11.1929 0 25V231C0 244.807 11.1929 256 25 256H231C244.807 256 256 244.807 256 231V25C256 11.1929 244.807 0 231 0Z" fill="#3178C6"/>
<path d="M41.5618 69.7585C38.8156 69.7585 36.3577 69.2436 34.1882 68.2138C32.0187 67.1702 30.2955 65.7422 29.0185 63.9297C27.7552 62.1172 27.0824 60.0438 27 57.7095H34.4148C34.5521 59.4396 35.3004 60.8539 36.6598 61.9524C38.0192 63.0372 39.6532 63.5795 41.5618 63.5795C43.0585 63.5795 44.3904 63.2363 45.5575 62.5497C46.7247 61.8632 47.6447 60.9089 48.3175 59.6868C48.9903 58.4647 49.3198 57.071 49.3061 55.5057C49.3198 53.9129 48.9834 52.4986 48.2969 51.2628C47.6103 50.027 46.6697 49.059 45.4751 48.3587C44.2805 47.6447 42.9074 47.2876 41.3558 47.2876C40.0926 47.2739 38.8499 47.5073 37.6278 47.9879C36.4058 48.4685 35.4377 49.1001 34.7237 49.8828L27.8239 48.75L30.0277 27H54.4965V33.3849H36.3509L35.1357 44.5689H35.3828C36.1655 43.6489 37.2708 42.8868 38.6989 42.2827C40.1269 41.6648 41.6922 41.3558 43.3949 41.3558C45.9489 41.3558 48.2282 41.96 50.233 43.1683C52.2377 44.3629 53.8168 46.0107 54.9702 48.1115C56.1236 50.2124 56.7003 52.6153 56.7003 55.3203C56.7003 58.1077 56.0549 60.593 54.7642 62.7763C53.4872 64.9458 51.709 66.6553 49.4297 67.9048C47.1641 69.1406 44.5414 69.7585 41.5618 69.7585Z" fill="white"/>
<path d="M62.8381 61.3551V55.2791L80.7365 27H85.8033V35.6506H82.7138L70.6648 54.7436V55.0732H95.6484V61.3551H62.8381ZM82.9609 69.1818V59.5014L83.0433 56.7827V27H90.2521V69.1818H82.9609Z" fill="white"/>
<path d="M169.601 188.616C176.024 188.616 181.232 183.413 181.232 176.995C181.232 170.578 176.024 165.375 169.601 165.375C163.177 165.375 157.969 170.578 157.969 176.995C157.969 183.413 163.177 188.616 169.601 188.616Z" fill="white"/>
<path d="M229.326 176.995C229.326 174.735 228.135 172.273 225.309 169.724C222.483 167.175 218.243 164.757 212.775 162.672C201.858 158.507 186.594 155.875 169.601 155.875C152.607 155.875 137.343 158.507 126.426 162.672C120.958 164.757 116.718 167.175 113.892 169.724C111.066 172.273 109.875 174.735 109.875 176.995C109.875 179.256 111.066 181.718 113.892 184.267C116.718 186.815 120.958 189.234 126.426 191.32C137.343 195.484 152.607 198.116 169.601 198.116C186.594 198.116 201.858 195.484 212.775 191.32C218.243 189.234 222.483 186.815 225.309 184.267C228.135 181.718 229.326 179.256 229.326 176.995ZM234.701 176.995C234.701 181.309 232.399 185.111 228.909 188.259C225.418 191.407 220.517 194.119 214.691 196.342C203.019 200.794 187.077 203.491 169.601 203.491C152.124 203.491 136.181 200.794 124.51 196.342C118.683 194.119 113.783 191.407 110.292 188.259C106.802 185.111 104.5 181.309 104.5 176.995C104.5 172.682 106.802 168.881 110.292 165.733C113.783 162.584 118.683 159.872 124.51 157.65C136.181 153.197 152.124 150.5 169.601 150.5C187.077 150.5 203.019 153.197 214.691 157.65C220.517 159.872 225.418 162.584 228.909 165.733C232.399 168.881 234.701 172.682 234.701 176.995Z" fill="white"/>
<path d="M199.463 228.67C201.424 227.538 202.963 225.275 203.759 221.556C204.555 217.838 204.531 212.96 203.605 207.186C201.757 195.659 196.407 181.137 187.91 166.434C179.414 151.732 169.501 139.842 160.432 132.478C155.891 128.79 151.675 126.331 148.053 125.161C144.431 123.99 141.701 124.19 139.739 125.321C137.777 126.453 136.239 128.716 135.442 132.435C134.646 136.154 134.67 141.031 135.596 146.804C137.444 158.332 142.794 172.854 151.291 187.557C159.787 202.259 169.7 214.149 178.769 221.513C183.31 225.2 187.526 227.66 191.148 228.83C194.77 230.001 197.501 229.801 199.463 228.67ZM202.152 233.324C198.415 235.479 193.97 235.389 189.495 233.943C185.02 232.497 180.219 229.612 175.379 225.682C165.683 217.81 155.373 205.364 146.635 190.243C137.896 175.121 132.263 159.978 130.287 147.653C129.3 141.5 129.201 135.904 130.184 131.309C131.168 126.714 133.312 122.823 137.049 120.668C140.787 118.512 145.232 118.602 149.706 120.048C154.181 121.495 158.982 124.379 163.822 128.309C173.518 136.182 183.828 148.627 192.566 163.749C201.305 178.87 206.938 194.013 208.915 206.339C209.901 212.492 210.001 218.088 209.017 222.682C208.033 227.277 205.889 231.168 202.152 233.324Z" fill="white"/>
<path d="M139.739 228.67C141.7 229.801 144.431 230.001 148.053 228.83C151.675 227.66 155.891 225.2 160.432 221.513C169.501 214.149 179.414 202.259 187.91 187.557C196.407 172.854 201.757 158.332 203.605 146.804C204.531 141.031 204.555 136.154 203.759 132.435C202.962 128.716 201.424 126.453 199.463 125.321C197.501 124.19 194.77 123.99 191.148 125.161C187.526 126.331 183.31 128.79 178.769 132.478C169.7 139.842 159.787 151.732 151.291 166.434C142.794 181.137 137.444 195.659 135.596 207.186C134.67 212.96 134.646 217.838 135.442 221.556C136.238 225.275 137.777 227.538 139.739 228.67ZM137.049 233.324C133.312 231.168 131.168 227.277 130.184 222.682C129.2 218.088 129.3 212.491 130.286 206.339C132.263 194.013 137.896 178.87 146.635 163.749C155.373 148.627 165.683 136.182 175.379 128.309C180.219 124.379 185.02 121.495 189.495 120.048C193.969 118.602 198.415 118.512 202.152 120.668C205.889 122.823 208.033 126.714 209.017 131.309C210 135.904 209.901 141.5 208.914 147.652C206.938 159.978 201.305 175.121 192.566 190.243C183.828 205.364 173.518 217.81 163.822 225.682C158.982 229.612 154.181 232.497 149.706 233.943C145.232 235.389 140.787 235.479 137.049 233.324Z" fill="white"/>
</g>
<defs>
<clipPath id="clip0_7_2">
<rect width="256" height="256" fill="white"/>
</clipPath>
</defs>
</svg>
